<svg width="50" height="50" viewBox="0 0 50 50" fill="none" 
  xmlns="http://www.w3.org/2000/svg">
  <path d="M14.5833 29.1667C11.125 29.1667 8.33334 31.9583 8.33334 35.4167C8.33334 38.1458 5.91667 39.5833 4.16667 39.5833C6.08334 42.125 9.35417 43.75 12.5 43.75C17.1042 43.75 20.8333 40.0208 20.8333 35.4167C20.8333 31.9583 18.0417 29.1667 14.5833 29.1667ZM43.1458 9.64583L40.3542 6.85416C40.1614 6.66103 39.9325 6.50781 39.6805 6.40326C39.4284 6.29872 39.1583 6.2449 38.8854 6.2449C38.6126 6.2449 38.3424 6.29872 38.0904 6.40326C37.8383 6.50781 37.6094 6.66103 37.4167 6.85416L18.75 25.5208L24.4792 31.25L43.1458 12.5833C43.339 12.3906 43.4922 12.1617 43.5967 11.9096C43.7013 11.6576 43.7551 11.3874 43.7551 11.1146C43.7551 10.8417 43.7013 10.5716 43.5967 10.3195C43.4922 10.0675 43.339 9.83857 43.1458 9.64583V9.64583Z" />
</svg>