<svg width="24" height="24" viewBox="0 0 24 24" fill="none" xmlns="http://www.w3.org/2000/svg">
<!-- <rect width="24" height="24" fill="#FFC107"/> -->
<path d="M19.21 15.27L16.67 14.98C16.3713 14.9449 16.0686 14.978 15.7845 15.0767C15.5005 15.1754 15.2425 15.3373 15.03 15.55L13.19 17.39C10.3512 15.9462 8.04375 13.6388 6.59997 10.8L8.44997 8.95C8.87997 8.52 9.08997 7.91 9.01997 7.31L8.72997 4.79C8.67596 4.30199 8.44434 3.8509 8.0792 3.52265C7.71407 3.1944 7.24095 3.01193 6.74997 3.01H5.01997C3.88997 3.01 2.94997 3.95 3.01997 5.08C3.54997 13.62 10.38 20.44 18.91 20.97C20.04 21.04 20.98 20.1 20.98 18.97V17.24C20.99 16.24 20.22 15.38 19.21 15.27Z" fill="black"/>
<path d="M18.4128 7.00315L19.827 8.41736C20.2159 8.80627 20.2159 9.44266 19.827 9.83157C19.4381 10.2205 18.8017 10.2205 18.4128 9.83157L16.9986 8.41736L15.5844 9.83157C15.1955 10.2205 14.5591 10.2205 14.1702 9.83157C13.7812 9.44266 13.7812 8.80627 14.1702 8.41736L15.5844 7.00315L14.1702 5.58893C13.7812 5.20002 13.7812 4.56363 14.1702 4.17472C14.5591 3.78581 15.1955 3.78581 15.5844 4.17472L16.9986 5.58893L18.4128 4.17472C18.8017 3.78581 19.4381 3.78581 19.827 4.17472C20.2159 4.56363 20.2159 5.20002 19.827 5.58893L18.4128 7.00315Z" fill="black"/>
</svg>
