<svg width="40" height="40" viewBox="0 0 40 40" fill="none" xmlns="http://www.w3.org/2000/svg">
<!-- <rect width="40" height="40" fill="#FFC107"/> -->
<path d="M6.66667 30H25C25.9167 30 26.6667 29.25 26.6667 28.3333C26.6667 27.4167 25.9167 26.6667 25 26.6667H6.66667C5.75 26.6667 5 27.4167 5 28.3333C5 29.25 5.75 30 6.66667 30ZM6.66667 21.6667H20C20.9167 21.6667 21.6667 20.9167 21.6667 20C21.6667 19.0833 20.9167 18.3333 20 18.3333H6.66667C5.75 18.3333 5 19.0833 5 20C5 20.9167 5.75 21.6667 6.66667 21.6667ZM5 11.6667C5 12.5833 5.75 13.3333 6.66667 13.3333H25C25.9167 13.3333 26.6667 12.5833 26.6667 11.6667C26.6667 10.75 25.9167 10 25 10H6.66667C5.75 10 5 10.75 5 11.6667ZM33.8333 24.8L29.0333 20L33.8333 15.2C33.9876 15.0457 34.11 14.8625 34.1935 14.6609C34.2771 14.4593 34.32 14.2432 34.32 14.025C34.32 13.8068 34.2771 13.5907 34.1935 13.3891C34.11 13.1875 33.9876 13.0043 33.8333 12.85C33.679 12.6957 33.4958 12.5733 33.2942 12.4898C33.0926 12.4063 32.8766 12.3633 32.6583 12.3633C32.4401 12.3633 32.224 12.4063 32.0224 12.4898C31.8208 12.5733 31.6376 12.6957 31.4833 12.85L25.5 18.8333C25.3455 18.9875 25.2229 19.1707 25.1393 19.3723C25.0556 19.5739 25.0126 19.7901 25.0126 20.0083C25.0126 20.2266 25.0556 20.4428 25.1393 20.6444C25.2229 20.846 25.3455 21.0291 25.5 21.1833L31.4833 27.1667C32.1333 27.8167 33.1833 27.8167 33.8333 27.1667C34.4667 26.5167 34.4833 25.45 33.8333 24.8Z" fill="black"/>
</svg>
