<svg width="24" height="24" viewBox="0 0 24 24" fill="none" xmlns="http://www.w3.org/2000/svg">
<!-- <rect width="24" height="24" fill="#FFC107"/> -->
<path d="M15 10.6V5C15 3.34 13.66 2 12 2C10.46 2 9.20999 3.16 9.03999 4.65L15 10.6ZM18.08 11C17.67 11 17.31 11.3 17.25 11.71C17.2 12.03 17.13 12.35 17.03 12.64L18.3 13.91C18.6 13.31 18.82 12.66 18.93 11.97C18.9461 11.8489 18.9361 11.7258 18.9008 11.6089C18.8654 11.492 18.8055 11.384 18.725 11.2922C18.6445 11.2003 18.5453 11.1268 18.4341 11.0764C18.3228 11.026 18.2021 10.9999 18.08 11ZM3.70999 3.56C3.61728 3.65251 3.54373 3.7624 3.49355 3.88338C3.44337 4.00435 3.41754 4.13403 3.41754 4.265C3.41754 4.39597 3.44337 4.52565 3.49355 4.64662C3.54373 4.7676 3.61728 4.87749 3.70999 4.97L8.99999 10.27V10.7C8.99999 11.89 9.59999 13.02 10.63 13.61C11.38 14.04 12.04 14.05 12.65 13.92L14.31 15.58C13.6 15.91 12.81 16.1 12 16.1C9.45999 16.1 7.11999 14.33 6.74999 11.71C6.71918 11.5121 6.61857 11.3317 6.46634 11.2014C6.31411 11.0712 6.12031 10.9998 5.91999 11C5.39999 11 4.99999 11.46 5.06999 11.97C5.52999 14.93 8.02999 17.27 11 17.72V20C11 20.55 11.45 21 12 21C12.55 21 13 20.55 13 20V17.72C13.8996 17.5854 14.7652 17.2799 15.55 16.82L19.04 20.31C19.227 20.497 19.4806 20.602 19.745 20.602C20.0094 20.602 20.263 20.497 20.45 20.31C20.637 20.123 20.742 19.8694 20.742 19.605C20.742 19.3406 20.637 19.087 20.45 18.9L5.11999 3.56C5.02747 3.4673 4.91758 3.39375 4.79661 3.34357C4.67564 3.29339 4.54595 3.26756 4.41499 3.26756C4.28402 3.26756 4.15433 3.29339 4.03336 3.34357C3.91239 3.39375 3.8025 3.4673 3.70999 3.56Z" fill="black"/>
</svg>
