<svg width="32" height="32" viewBox="0 0 32 32" fill="none"
  xmlns="http://www.w3.org/2000/svg">
  <path d="M4.83331 26.6667V27.1667H5.33331H26.6666H27.1666V26.6667V24C27.1666 22.9297 26.6265 22.0292 25.8397 21.303C25.0563 20.58 23.9956 19.9964 22.8542 19.5392C20.5724 18.6251 17.8425 18.1667 16 18.1667C14.1575 18.1667 11.4276 18.6251 9.14571 19.5392C8.00436 19.9964 6.94364 20.58 6.16024 21.303C5.37344 22.0292 4.83331 22.9297 4.83331 24V26.6667ZM16 16.5C19.2228 16.5 21.8333 13.8895 21.8333 10.6667C21.8333 7.44386 19.2228 4.83334 16 4.83334C12.7772 4.83334 10.1666 7.44386 10.1666 10.6667C10.1666 13.8895 12.7772 16.5 16 16.5Z" fill="black" stroke="white"/>
</svg>
