<svg width="24" height="24" viewBox="0 0 24 24" fill="none" xmlns="http://www.w3.org/2000/svg">
<path d="M16.5629 12.94L7.62286 4L6.21286 5.41L8.59286 7.79L3.44286 12.94C3.30257 13.0786 3.19119 13.2436 3.11517 13.4256C3.03915 13.6076 3 13.8028 3 14C3 14.1972 3.03915 14.3924 3.11517 14.5744C3.19119 14.7564 3.30257 14.9214 3.44286 15.06L8.94286 20.56C9.23286 20.85 9.62286 21 10.0029 21C10.3829 21 10.7729 20.85 11.0629 20.56L16.5629 15.06C17.1529 14.48 17.1529 13.53 16.5629 12.94ZM5.21286 14L10.0029 9.21L14.7929 14H5.21286ZM19.0029 15.5C19.0029 15.5 17.0029 17.67 17.0029 19C17.0029 20.1 17.9029 21 19.0029 21C20.1029 21 21.0029 20.1 21.0029 19C21.0029 17.67 19.0029 15.5 19.0029 15.5Z" fill="black"/>
</svg>
