<svg width="24" height="24" viewBox="0 0 24 24" fill="none" xmlns="http://www.w3.org/2000/svg">
<path d="M7.40002 14.0024C5.74002 14.0024 4.40002 15.3424 4.40002 17.0024C4.40002 18.3124 3.24002 19.0024 2.40002 19.0024C3.32002 20.2224 4.89002 21.0024 6.40002 21.0024C8.61002 21.0024 10.4 19.2124 10.4 17.0024C10.4 15.3424 9.06002 14.0024 7.40002 14.0024ZM21.11 4.63244L19.77 3.29244C19.6775 3.19974 19.5676 3.12619 19.4466 3.07601C19.3257 3.02583 19.196 3 19.065 3C18.9341 3 18.8044 3.02583 18.6834 3.07601C18.5624 3.12619 18.4525 3.19974 18.36 3.29244L9.40002 12.2524L12.15 15.0024L21.11 6.04244C21.2027 5.94993 21.2763 5.84004 21.3265 5.71907C21.3766 5.59809 21.4025 5.46841 21.4025 5.33744C21.4025 5.20648 21.3766 5.07679 21.3265 4.95582C21.2763 4.83485 21.2027 4.72496 21.11 4.63244Z" fill="black"/>
</svg>
