<svg width="24" height="24" viewBox="0 0 24 24" fill="none" xmlns="http://www.w3.org/2000/svg">
<path d="M12.4995 8.00011C9.84951 8.00011 7.44951 8.99011 5.59951 10.6001L3.70951 8.71011C3.07951 8.08011 1.99951 8.52011 1.99951 9.41011V15.0001C1.99951 15.5501 2.44951 16.0001 2.99951 16.0001H8.58951C9.47951 16.0001 9.92951 14.9201 9.29951 14.2901L7.38951 12.3801C8.77951 11.2201 10.5495 10.5001 12.5095 10.5001C15.6695 10.5001 18.3995 12.3401 19.6995 15.0001C19.9695 15.5601 20.6095 15.8401 21.1995 15.6401C21.9095 15.4101 22.2695 14.6001 21.9495 13.9201C20.2295 10.4201 16.6495 8.00011 12.4995 8.00011Z" fill="black"/>
</svg>
